<svg version="1.1" xmlns="http://www.w3.org/2000/svg" viewBox="0 0 790 371.5" width="790" height="371.5">
  <!-- svg-source:excalidraw -->
  
  <defs>
    <style>
      @font-face {
        font-family: "Virgil";
        src: url("https://excalidraw.com/Virgil.woff2");
      }
      @font-face {
        font-family: "Cascadia";
        src: url("https://excalidraw.com/Cascadia.woff2");
      }
    </style>
  </defs>
  <rect x="0" y="0" width="790" height="371.5" fill="#ffffff"></rect><g stroke-linecap="round" transform="translate(224 85.5) rotate(0 142 125)"><path d="M-1.18 0.4 C94.18 -2.02, 188.95 -0.46, 285.39 1.49 M0.48 0.08 C79.54 1.28, 159.61 0.58, 283.37 0.27 M285.08 0.19 C282.56 57.67, 284.27 118.71, 283.55 250.49 M283.47 0.31 C285.01 73.61, 284.77 148.34, 284.74 249.42 M284.82 249.15 C190.01 251.09, 95.84 249.22, -1.3 248.61 M284.44 249.33 C218.1 249.68, 153.48 250.68, 0.74 250.73 M-0.12 249.02 C0.65 154.22, 1.1 60.13, -0.99 -0.71 M-0.71 250.74 C-0.27 180.69, 0.19 110.63, 0.79 -0.44" stroke="#000000" stroke-width="1" fill="none"></path></g><g transform="translate(229 85.5) rotate(0 54 18)"><text x="0" y="25" font-family="Virgil, Segoe UI Emoji" font-size="28px" fill="#000000" text-anchor="start" style="white-space: pre;" direction="ltr">Account</text></g><g transform="translate(234 133.5) rotate(0 109.5 13)"><text x="0" y="18" font-family="Virgil, Segoe UI Emoji" font-size="20px" fill="#000000" text-anchor="start" style="white-space: pre;" direction="ltr">name: immutable string</text></g><g transform="translate(232 158.5) rotate(0 116.5 13)"><text x="0" y="18" font-family="Virgil, Segoe UI Emoji" font-size="20px" fill="#000000" text-anchor="start" style="white-space: pre;" direction="ltr">balance: mutable double</text></g><g stroke-linecap="round"><g transform="translate(509 184.5) rotate(0 79.17553861513738 -0.43386890408154954)"><path d="M-0.65 -0.51 C25.7 -0.33, 132.59 0.75, 159 0.96 M1.2 -1.83 C27.41 -1.96, 132.62 -0.76, 158.58 -0.66" stroke="#000000" stroke-width="1" fill="none"></path></g><g transform="translate(509 184.5) rotate(0 79.17553861513738 -0.43386890408154954)"><path d="M129.46 11.05 C142.5 5.5, 152.7 3.31, 160.32 -0.66 M130.89 8.85 C139.01 7.39, 145.13 4.65, 158.47 -0.26" stroke="#000000" stroke-width="1" fill="none"></path></g><g transform="translate(509 184.5) rotate(0 79.17553861513738 -0.43386890408154954)"><path d="M129.62 -9.47 C142.58 -7.34, 152.72 -1.86, 160.32 -0.66 M131.05 -11.67 C138.93 -7.61, 145.01 -4.83, 158.47 -0.26" stroke="#000000" stroke-width="1" fill="none"></path></g></g><g transform="translate(546 154.5) rotate(0 21 10.5)"><text x="0" y="15" font-family="Virgil, Segoe UI Emoji" font-size="16px" fill="#000000" text-anchor="start" style="white-space: pre;" direction="ltr">query</text></g><g transform="translate(671 172) rotate(0 54.5 10.5)"><text x="0" y="15" font-family="Virgil, Segoe UI Emoji" font-size="16px" fill="#000000" text-anchor="start" style="white-space: pre;" direction="ltr">AccountState</text></g><g stroke-linecap="round"><g transform="translate(44 190.5) rotate(0 84.23262171033298 -0.5109035777209385)"><path d="M-1.07 0.69 C26.98 0.91, 139.14 0.39, 167.23 0.23 M0.56 0.01 C29.09 -0.06, 141.89 -1.93, 169.54 -1.76" stroke="#000000" stroke-width="1" fill="none"></path></g><g transform="translate(44 190.5) rotate(0 84.23262171033298 -0.5109035777209385)"><path d="M142.57 7.41 C147.81 5.9, 152.95 5.38, 169.28 0.1 M141.24 9.28 C151.73 3.81, 162.8 0.15, 169.83 -1.04" stroke="#000000" stroke-width="1" fill="none"></path></g><g transform="translate(44 190.5) rotate(0 84.23262171033298 -0.5109035777209385)"><path d="M142.43 -13.11 C147.51 -10.31, 152.68 -6.52, 169.28 0.1 M141.1 -11.24 C151.65 -8.6, 162.78 -4.15, 169.83 -1.04" stroke="#000000" stroke-width="1" fill="none"></path></g></g><g transform="translate(90 161) rotate(0 37 10.5)"><text x="0" y="15" font-family="Virgil, Segoe UI Emoji" font-size="16px" fill="#000000" text-anchor="start" style="white-space: pre;" direction="ltr">commands</text></g><g stroke-linecap="round" transform="translate(209 43.5) rotate(0 157.5 159)"><path d="M0.56 0.69 C67.92 -0.83, 134.81 0.82, 314.26 0.21 M315.99 -0.32 C315.61 100.73, 315.51 204.42, 314.26 317.51 M315.64 318.38 C202.22 319.2, 88.67 320.1, -0.64 317.04 M-0.02 316.79 C-2.68 214.37, -2.47 109.98, 0.47 -1.12" stroke="#000000" stroke-width="1.5" fill="none" stroke-dasharray="1.5 7"></path></g><g transform="translate(253 10) rotate(0 99.5 10.5)"><text x="0" y="15" font-family="Virgil, Segoe UI Emoji" font-size="16px" fill="#000000" text-anchor="start" style="white-space: pre;" direction="ltr">Memory Model Boundaries</text></g><g transform="translate(604 112.5) rotate(0 35 23)"><text x="0" y="32" font-family="Virgil, Segoe UI Emoji" font-size="36px" fill="#000000" text-anchor="start" style="white-space: pre;" direction="ltr">ABI</text></g><g transform="translate(10 123.5) rotate(0 35 23)"><text x="0" y="32" font-family="Virgil, Segoe UI Emoji" font-size="36px" fill="#000000" text-anchor="start" style="white-space: pre;" direction="ltr">ABI</text></g></svg>